<?xml version="1.0" encoding="iso-8859-1"?>
<!DOCTYPE svg PUBLIC "-//W3C//DTD SVG 1.1//EN" "http://www.w3.org/Graphics/SVG/1.1/DTD/svg11.dtd">
<svg xmlns="http://www.w3.org/2000/svg" xmlns:xlink="http://www.w3.org/1999/xlink" version="1.1" viewBox="0 0 226.463 226.463" enable-background="new 0 0 226.463 226.463" width="512px" height="512px">
  <g>
    <path d="m216.847,25.791l-53.818-25.224c-1.441-0.675-3.092-0.751-4.587-0.209-1.497,0.542-2.717,1.655-3.392,3.096l-41.579,88.717c-0.086,0.007-0.167,0.01-0.239,0.01s-0.153-0.003-0.239-0.01l-41.579-88.717c-0.675-1.441-1.896-2.554-3.392-3.096-1.496-0.542-3.146-0.466-4.587,0.209l-53.819,25.224c-3,1.406-4.293,4.979-2.887,7.979l43.333,92.461c-3.834,1.772-6.77,5.158-7.944,9.54-1.779,6.638 1.063,13.34 7.07,16.677 1.217,0.676 1.399,1.78 1.399,2.377 0,0.597-0.182,1.701-1.399,2.377-6.007,3.337-8.849,10.04-7.07,16.678 1.779,6.638 7.607,11.026 14.461,10.908 1.411,0.019 2.102,0.842 2.4,1.359s0.693,1.564-0.022,2.759c-3.534,5.894-2.644,13.118 2.215,17.978 4.858,4.859 12.084,5.75 17.979,2.216 1.194-0.716 2.24-0.322 2.758-0.023 0.518,0.299 1.382,1.008 1.359,2.4-0.114,6.871 4.27,12.683 10.908,14.462 1.319,0.354 2.641,0.524 3.938,0.524 5.23,0 10.065-2.781 12.739-7.595 0.676-1.217 1.78-1.399 2.377-1.399s1.701,0.182 2.377,1.399c3.337,6.008 10.038,8.847 16.677,7.07 6.638-1.779 11.022-7.591 10.908-14.462-0.023-1.392 0.842-2.102 1.359-2.4 0.518-0.298 1.564-0.693 2.759,0.023 5.893,3.533 13.119,2.644 17.978-2.216 4.859-4.859 5.75-12.084 2.216-17.978-0.716-1.194-0.322-2.241-0.023-2.759 0.299-0.517 1.012-1.353 2.4-1.359 6.9,0.106 12.683-4.27 14.461-10.908s-1.063-13.34-7.07-16.678c-1.217-0.676-1.399-1.78-1.399-2.377 0-0.598 0.182-1.701 1.399-2.377 6.007-3.337 8.849-10.039 7.07-16.677-1.173-4.38-4.11-7.772-7.942-9.545l43.331-92.456c1.409-2.999 0.117-6.572-2.884-7.978zm-44.094,113.085c0.206,0.766 0.309,2.185-1.306,3.082-4.741,2.633-7.572,7.444-7.572,12.868 0,5.423 2.831,10.234 7.571,12.867 1.615,0.897 1.512,2.316 1.307,3.082-0.203,0.757-0.811,2.016-2.607,2.016-0.021,0-0.043,0-0.065,0-5.401-0.098-10.279,2.66-12.991,7.357-2.712,4.697-2.666,10.278 0.124,14.93 0.95,1.584 0.151,2.761-0.41,3.321s-1.737,1.36-3.321,0.41c-4.652-2.791-10.233-2.836-14.93-0.124-4.697,2.711-7.448,7.568-7.358,12.992 0.03,1.846-1.25,2.466-2.016,2.671-0.766,0.206-2.185,0.308-3.081-1.306-2.634-4.741-7.444-7.572-12.868-7.572s-10.234,2.831-12.868,7.572c-0.896,1.615-2.315,1.514-3.081,1.306-0.766-0.205-2.046-0.825-2.016-2.672 0.09-5.423-2.661-10.279-7.358-12.991-4.698-2.713-10.278-2.666-14.929,0.124-1.583,0.951-2.761,0.151-3.322-0.41-0.561-0.561-1.359-1.737-0.409-3.321 2.789-4.652 2.835-10.233 0.123-14.93-2.712-4.696-7.571-7.453-12.991-7.357-1.868-0.004-2.467-1.25-2.672-2.016-0.206-0.766-0.309-2.185 1.306-3.082 4.741-2.633 7.572-7.444 7.572-12.867 0-5.424-2.831-10.234-7.572-12.868-1.615-0.897-1.512-2.315-1.306-3.082 0.205-0.766 0.814-2.015 2.672-2.016 5.402,0.089 10.279-2.661 12.991-7.357 2.712-4.697 2.666-10.278-0.124-14.931-0.95-1.583-0.151-2.76 0.41-3.321 0.561-0.561 1.738-1.359 3.322-0.409 4.651,2.789 10.232,2.834 14.93,0.123 4.697-2.712 7.447-7.568 7.357-12.991-0.03-1.847 1.25-2.467 2.016-2.672 0.764-0.207 2.184-0.308 3.081,1.306 2.634,4.741 7.444,7.572 12.868,7.572s10.234-2.831 12.868-7.572c0.897-1.614 2.317-1.512 3.081-1.306 0.766,0.205 2.046,0.825 2.016,2.672-0.09,5.422 2.661,10.279 7.357,12.991 4.698,2.712 10.278,2.667 14.93-0.124 1.583-0.95 2.761-0.151 3.321,0.41s1.359,1.737 0.41,3.321c0,0 0,0.001 0,0.001-2.789,4.651-2.835,10.232-0.123,14.929 2.711,4.697 7.546,7.43 12.991,7.357 1.84,0.014 2.467,1.251 2.672,2.017zm-109.659-124.896l32.536,69.423c-0.484,0.081-0.969,0.179-1.453,0.309-6.638,1.779-11.022,7.591-10.908,14.462 0.023,1.393-0.842,2.102-1.359,2.4-0.518,0.298-1.565,0.692-2.758-0.022-5.896-3.535-13.12-2.644-17.979,2.215-2.694,2.694-4.163,6.116-4.339,9.635l-36.693-78.292 42.953-20.13zm106.535,98.421c-0.176-3.518-1.645-6.94-4.339-9.635-4.86-4.86-12.085-5.75-17.978-2.216-1.193,0.716-2.24,0.322-2.759,0.023-0.518-0.299-1.382-1.008-1.359-2.4 0.114-6.872-4.27-12.684-10.908-14.462-0.485-0.13-0.969-0.228-1.453-0.309l32.536-69.423 42.953,20.131-36.693,78.291z" fill="#FFFFFF"/>
    <path d="m131.121,156.168c-0.585-0.799-0.585-1.886 0-2.685l8.349-11.405c1.167-1.594-0.115-3.816-2.08-3.602l-14.051,1.528c-0.985,0.107-1.926-0.436-2.325-1.343l-5.702-12.933c-0.797-1.808-3.362-1.808-4.159,0l-5.702,12.933c-0.4,0.906-1.341,1.45-2.325,1.343l-14.051-1.528c-1.964-0.214-3.247,2.008-2.08,3.602l8.349,11.405c0.585,0.799 0.585,1.886 0,2.685l-8.349,11.405c-1.167,1.594 0.115,3.816 2.08,3.602l14.051-1.528c0.985-0.107 1.926,0.436 2.325,1.343l5.702,12.933c0.797,1.808 3.362,1.808 4.159,0l5.702-12.933c0.4-0.907 1.341-1.45 2.325-1.343l14.051,1.528c1.964,0.214 3.247-2.008 2.08-3.602l-8.349-11.405z" fill="#FFFFFF"/>
  </g>
</svg>
